#define info_width 43
#define info_height 43
static char info_bits[] = {
   0x00, 0x00, 0x00, 0x00, 0x00, 0x00, 0x00, 0x00, 0xff, 0x07, 0x00, 0x00,
   0x00, 0xe0, 0x00, 0x38, 0x00, 0x00, 0x00, 0x18, 0x00, 0xc0, 0x00, 0x00,
   0x00, 0xc4, 0xff, 0x1f, 0x01, 0x00, 0x00, 0xc3, 0xff, 0x1f, 0x06, 0x00,
   0x80, 0xc0, 0xff, 0x1f, 0x08, 0x00, 0x40, 0xc0, 0xff, 0x1f, 0x10, 0x00,
   0x20, 0xc0, 0xff, 0x1f, 0x20, 0x00, 0x20, 0x00, 0xf8, 0x00, 0x20, 0x00,
   0x10, 0x00, 0xf8, 0x00, 0x40, 0x00, 0x08, 0x00, 0xf8, 0x00, 0x80, 0x00,
   0x08, 0x00, 0xf8, 0x00, 0x80, 0x00, 0x04, 0x00, 0xf8, 0x00, 0x00, 0x01,
   0x04, 0x00, 0xf8, 0x00, 0x00, 0x01, 0x04, 0x00, 0xf8, 0x00, 0x00, 0x01,
   0x02, 0x00, 0xf8, 0x00, 0x00, 0x02, 0x02, 0x00, 0xf8, 0x00, 0x00, 0x02,
   0x02, 0x00, 0xf8, 0x00, 0x00, 0x02, 0x02, 0x00, 0xf8, 0x00, 0x00, 0x02,
   0x02, 0x00, 0xf8, 0x00, 0x00, 0x02, 0x02, 0x00, 0xf8, 0x00, 0x00, 0x02,
   0x02, 0x00, 0xf8, 0x00, 0x00, 0x02, 0x02, 0x00, 0xf8, 0x00, 0x00, 0x02,
   0x02, 0x00, 0xf8, 0x00, 0x00, 0x02, 0x02, 0x00, 0xf8, 0x00, 0x00, 0x02,
   0x02, 0x00, 0xf8, 0x00, 0x00, 0x02, 0x04, 0x00, 0xf8, 0x00, 0x00, 0x01,
   0x04, 0x00, 0xf8, 0x00, 0x00, 0x01, 0x04, 0x00, 0xf8, 0x00, 0x00, 0x01,
   0x08, 0x00, 0xf8, 0x00, 0x80, 0x00, 0x08, 0x00, 0xf8, 0x00, 0x80, 0x00,
   0x10, 0x00, 0xf8, 0x00, 0x40, 0x00, 0x20, 0x00, 0xf8, 0x00, 0x20, 0x00,
   0x20, 0xc0, 0xff, 0x1f, 0x20, 0x00, 0x40, 0xc0, 0xff, 0x1f, 0x10, 0x00,
   0x80, 0xc0, 0xff, 0x1f, 0x08, 0x00, 0x00, 0xc3, 0xff, 0x1f, 0x06, 0x00,
   0x00, 0xc4, 0xff, 0x1f, 0x01, 0x00, 0x00, 0x18, 0x00, 0xc0, 0x00, 0x00,
   0x00, 0xe0, 0x00, 0x38, 0x00, 0x00, 0x00, 0x00, 0xff, 0x07, 0x00, 0x00,
   0x00, 0x00, 0x00, 0x00, 0x00, 0x00};
